<?xml version="1.0" encoding="UTF-8" standalone="no"?>
<!-- Created with Inkscape (http://www.inkscape.org/) -->

<svg
   xmlns:dc="http://purl.org/dc/elements/1.1/"
   xmlns:cc="http://creativecommons.org/ns#"
   xmlns:rdf="http://www.w3.org/1999/02/22-rdf-syntax-ns#"
   xmlns:svg="http://www.w3.org/2000/svg"
   xmlns="http://www.w3.org/2000/svg"
   xmlns:sodipodi="http://sodipodi.sourceforge.net/DTD/sodipodi-0.dtd"
   xmlns:inkscape="http://www.inkscape.org/namespaces/inkscape"
   width="100px"
   height="100px"
   viewBox="0 0 100 100"
   version="1.1"
   id="SVGRoot"
   inkscape:version="0.92.2 (5c3e80d, 2017-08-06)"
   sodipodi:docname="compete icon.svg">
  <sodipodi:namedview
     id="base"
     pagecolor="#ffffff"
     bordercolor="#666666"
     borderopacity="1.0"
     inkscape:pageopacity="0.0"
     inkscape:pageshadow="2"
     inkscape:zoom="3.6203867"
     inkscape:cx="78.075327"
     inkscape:cy="44.509437"
     inkscape:document-units="px"
     inkscape:current-layer="layer1"
     showgrid="false"
     inkscape:window-width="1920"
     inkscape:window-height="1001"
     inkscape:window-x="-9"
     inkscape:window-y="-9"
     inkscape:window-maximized="1"
     inkscape:grid-bbox="true" />
  <defs
     id="defs6679" />
  <metadata
     id="metadata6682">
    <rdf:RDF>
      <cc:Work
         rdf:about="">
        <dc:format>image/svg+xml</dc:format>
        <dc:type
           rdf:resource="http://purl.org/dc/dcmitype/StillImage" />
        <dc:title></dc:title>
      </cc:Work>
    </rdf:RDF>
  </metadata>
  <g
     id="layer1"
     inkscape:groupmode="layer"
     inkscape:label="Layer 1">
    <g
       transform="matrix(1.3133915,0,0,1.3133915,-10.280752,-111.98393)"
       style="display:inline;opacity:1"
       id="g5522"
       inkscape:export-filename="C:\Users\Vishal\Desktop\wyafe icons\g5522.png"
       inkscape:export-xdpi="117.83642"
       inkscape:export-ydpi="117.83642">
      <g
         id="g5484">
        <g
           id="g1135"
           transform="translate(2.0579753)"
           style="display:inline;opacity:1">
          <path
             sodipodi:nodetypes="cssccsscc"
             inkscape:connector-curvature="0"
             id="path829-0"
             d="m 67.336607,94.600061 c 0.11702,8.009759 -0.75583,17.618959 -4.24884,26.148339 -2.199371,5.37052 -5.273842,10.56553 -10.47133,14.35966 -0.832702,0.60787 -1.7199,1.16223 -2.66673,1.4946 l -13.300041,0.0472 c -5.70328,-3.80253 -9.27463,-8.44845 -11.83249,-13.74106 -2.09493,-4.33472 -3.58702,-9.10323 -4.36606,-14.19748 -0.67975,-4.44493 -0.81487,-9.157839 -1.09386,-14.016809 z"
             style="display:inline;opacity:1;fill:#fed555;fill-opacity:0.9254902;stroke:none;stroke-width:0.26458332px;stroke-linecap:butt;stroke-linejoin:miter;stroke-opacity:1" />
          <path
             inkscape:connector-curvature="0"
             id="path827-6"
             d="m 17.609116,91.100935 v 3.61439 h 51.629811 v -3.67768 z"
             style="display:inline;opacity:1;fill:#fed861;fill-opacity:1;stroke:none;stroke-width:0.26458332px;stroke-linecap:butt;stroke-linejoin:miter;stroke-opacity:1" />
          <path
             sodipodi:nodetypes="ccccccc"
             inkscape:connector-curvature="0"
             id="path837-6"
             d="m 67.276965,98.641121 12.343871,-0.11956 c 0.0502,19.190519 -8.708957,30.901929 -22.595888,32.505959 l 1.186199,-1.62494 c 7.659078,-2.67103 17.89041,-13.04129 18.024599,-27.45704 H 67.15251 c 0.053,-0.96774 0.114655,-1.86093 0.124455,-3.304419 z"
             style="display:inline;opacity:1;fill:#fed861;fill-opacity:1;stroke:none;stroke-width:0.26458332px;stroke-linecap:butt;stroke-linejoin:miter;stroke-opacity:1" />
          <path
             style="display:inline;opacity:1;fill:#fed861;fill-opacity:1;stroke:none;stroke-width:0.26458332px;stroke-linecap:butt;stroke-linejoin:miter;stroke-opacity:1"
             d="M 19.591232,98.540901 7.3136882,98.421341 c -0.0502,19.190519 8.8506948,30.901929 22.7376258,32.505959 l -1.327938,-1.62494 c -7.65908,-2.67103 -17.890411,-13.04129 -18.024601,-27.45704 h 9.085756 c -0.053,-0.96774 -0.183499,-1.860929 -0.193299,-3.304419 z"
             id="path841-1"
             inkscape:connector-curvature="0"
             sodipodi:nodetypes="ccccccc" />
          <path
             sodipodi:nodetypes="ccccc"
             inkscape:connector-curvature="0"
             id="path843-8"
             d="m 30.365056,149.65568 26.24742,-0.0236 0.83834,1.34846 h -27.81195 z"
             style="display:inline;opacity:1;fill:#afbbbb;fill-opacity:1;stroke:none;stroke-width:0.26458332px;stroke-linecap:butt;stroke-linejoin:miter;stroke-opacity:1" />
          <path
             inkscape:connector-curvature="0"
             id="path845-8"
             d="m 24.696166,151.02251 37.42671,-0.063 v 4.74403 h -37.41773 z"
             style="display:inline;opacity:1;fill:#405a67;fill-opacity:1;stroke:none;stroke-width:0.26458332px;stroke-linecap:butt;stroke-linejoin:miter;stroke-opacity:1" />
          <path
             sodipodi:nodetypes="cccc"
             inkscape:connector-curvature="0"
             id="path1065"
             d="m 19.568352,94.649326 h 47.859527 c -0.09947,1.389609 -0.09864,2.330331 -0.102352,3.291376 z"
             style="display:inline;opacity:1;fill:#fea711;fill-opacity:0.9254902;stroke:none;stroke-width:0.26458332px;stroke-linecap:butt;stroke-linejoin:miter;stroke-opacity:1" />
          <g
             transform="translate(0,-0.4209495)"
             id="g1117">
            <path
               style="display:inline;opacity:1;fill:#fed554;fill-opacity:0.9254902;stroke:none;stroke-width:0.26458332px;stroke-linecap:butt;stroke-linejoin:miter;stroke-opacity:1"
               d="m 39.455075,139.38336 h 7.934571 v 3.32417 h 2.271789 c 1.035902,0.80148 0.923481,1.72711 0.317381,2.7061 1.061921,1.57021 1.525519,3.14042 1.653731,4.71063 H 35.228885 c 0.051,-1.78368 0.672891,-3.33898 1.837471,-4.67722 -0.57726,-0.8894 -0.781741,-1.78916 0.23386,-2.72281 h 2.154859 z"
               id="path835-9"
               inkscape:connector-curvature="0"
               sodipodi:nodetypes="ccccccccccc" />
            <path
               style="fill:#feab16;fill-opacity:1;stroke:none;stroke-width:0.26458332px;stroke-linecap:butt;stroke-linejoin:miter;stroke-opacity:1"
               d="m 39.455074,139.38336 h 7.934571 l 10e-7,1.14215 z"
               id="path1084"
               inkscape:connector-curvature="0"
               sodipodi:nodetypes="cccc" />
            <path
               style="opacity:1;fill:#feab16;fill-opacity:1;stroke:none;stroke-width:0.26458332px;stroke-linecap:butt;stroke-linejoin:miter;stroke-opacity:1"
               d="m 49.978816,145.41363 h -2.43825 c 1.448244,0.58729 2.832275,1.92372 4.09198,4.71063 -0.146735,-1.5472 -0.57292,-3.1482 -1.65373,-4.71063 z"
               id="path1086"
               inkscape:connector-curvature="0"
               sodipodi:nodetypes="cccc" />
          </g>
          <g
             transform="translate(0,-0.23386084)"
             id="g1112">
            <path
               style="display:inline;opacity:1;fill:#fed861;fill-opacity:1;stroke:none;stroke-width:0.26458332px;stroke-linecap:butt;stroke-linejoin:miter;stroke-opacity:1"
               d="m 36.713886,136.85575 c -0.63169,1.03877 0.01209,2.03492 0.655891,2.4478 l 12.22484,-0.14174 c 0.86405,-0.31923 1.209839,-1.67964 0.33409,-2.34757 z"
               id="path831-7"
               inkscape:connector-curvature="0"
               sodipodi:nodetypes="ccccc" />
            <path
               style="fill:#feab16;fill-opacity:1;stroke:none;stroke-width:0.26458332px;stroke-linecap:butt;stroke-linejoin:miter;stroke-opacity:1"
               d="m 48.47555,136.86557 h 1.459108 c 0.838062,0.66527 0.549953,1.99245 -0.340041,2.34301 0.605675,-0.99908 -0.100857,-2.165 -1.119067,-2.34301 z"
               id="path1104"
               inkscape:connector-curvature="0"
               sodipodi:nodetypes="cccc" />
          </g>
          <path
             sodipodi:nodetypes="cccc"
             inkscape:connector-curvature="0"
             id="path1106"
             d="m 76.235744,101.94554 h 1.078648 c -0.474825,13.58762 -6.149058,18.02975 -11.339849,22.61517 9.184495,-9.24822 9.913519,-16.60876 10.261201,-22.61517 z"
             style="opacity:1;fill:#feab16;fill-opacity:1;stroke:none;stroke-width:0.26458332px;stroke-linecap:butt;stroke-linejoin:miter;stroke-opacity:1" />
          <path
             style="opacity:1;fill:#feab16;fill-opacity:1;stroke:none;stroke-width:0.26458332px;stroke-linecap:butt;stroke-linejoin:miter;stroke-opacity:1"
             d="M 10.698775,101.84532 H 9.620127 c 0.474825,13.58762 6.149058,18.02975 11.339849,22.61517 -9.184495,-9.24822 -9.913519,-16.60876 -10.261201,-22.61517 z"
             id="path1108"
             inkscape:connector-curvature="0"
             sodipodi:nodetypes="cccc" />
        </g>
        <g
           id="g5137">
          <path
             sodipodi:nodetypes="cccccccccccccccccccc"
             inkscape:connector-curvature="0"
             id="path5021"
             d="M 44.185416,155.70354 V 91.070879 h 27.111486 v 3.644445 h -1.900706 v 3.925202 0 C 69.067029,109.69 66.889872,122.19489 59.082923,131.02752 c -1.728641,2.04467 -4.439066,4.49263 -7.09029,5.60419 0.810473,0.71624 0.585664,1.85413 -0.34004,2.34301 h -2.204974 v 3.25618 h 2.235626 c 0.79258,0.63697 1.217587,1.76878 0.353546,2.76178 0.725733,1.10442 1.401676,2.34175 1.653731,4.71063 h 5.024213 l 0.737409,1.27723 4.728707,-0.021 v 4.74403 z"
             style="opacity:0.11199999;fill:#181818;fill-opacity:1;stroke:none;stroke-width:0.26458332px;stroke-linecap:butt;stroke-linejoin:miter;stroke-opacity:1" />
          <g
             style="fill:#ffffff;fill-opacity:1;stroke:none"
             id="g5066"
             transform="rotate(-180,69.520215,143.82018)">
            <path
               sodipodi:nodetypes="ccccc"
               inkscape:connector-curvature="0"
               id="path5053"
               d="m 101.57103,196.56125 15.25866,-15.3821 0.21332,1.48153 -12.81362,13.89731 z"
               style="fill:#ffffff;fill-opacity:1;stroke:none;stroke-width:0.26458332px;stroke-linecap:butt;stroke-linejoin:miter;stroke-opacity:1" />
            <path
               sodipodi:nodetypes="ccccc"
               style="fill:#ffffff;fill-opacity:1;stroke:none;stroke-width:0.26458332px;stroke-linecap:butt;stroke-linejoin:miter;stroke-opacity:1"
               d="m 105.48267,196.55645 11.67815,-11.75488 c 0.0233,0.32638 0.045,0.64038 0.0681,0.98643 l -9.76788,10.76603 z"
               id="path5055"
               inkscape:connector-curvature="0" />
            <path
               sodipodi:nodetypes="cccccc"
               inkscape:connector-curvature="0"
               id="path5057"
               d="m 94.855014,196.56948 20.767506,-22.20822 0.59319,2.72402 0.45266,2.24714 -16.953585,17.2311 z"
               style="fill:#ffffff;fill-opacity:1;stroke:none;stroke-width:0.26458332px;stroke-linecap:butt;stroke-linejoin:miter;stroke-opacity:1" />
          </g>
          <g
             style="fill:#ffffff;fill-opacity:1;stroke:none"
             id="g5094"
             transform="matrix(-0.20079423,0,0,-0.23732335,41.81299,170.80952)">
            <path
               sodipodi:nodetypes="ccccc"
               inkscape:connector-curvature="0"
               id="path5088"
               d="m 98.606123,199.67873 10.693897,-10.52513 1.28451,0.89454 -10.601657,10.88029 z"
               style="fill:#ffffff;fill-opacity:1;stroke:none;stroke-width:0.26458332px;stroke-linecap:butt;stroke-linejoin:miter;stroke-opacity:1" />
            <path
               sodipodi:nodetypes="ccccc"
               style="fill:#ffffff;fill-opacity:1;stroke:none;stroke-width:0.26458332px;stroke-linecap:butt;stroke-linejoin:miter;stroke-opacity:1"
               d="m 101.2279,202.07658 10.36884,-11.30426 1.03068,0.75538 -11.09779,10.82981 z"
               id="path5090"
               inkscape:connector-curvature="0" />
            <path
               sodipodi:nodetypes="ccccc"
               inkscape:connector-curvature="0"
               id="path5092"
               d="m 106.67592,207.32411 11.52797,-11.37158 2.28983,1.99735 -11.17301,12.0706 z"
               style="fill:#ffffff;fill-opacity:1;stroke:none;stroke-width:0.26458332px;stroke-linecap:butt;stroke-linejoin:miter;stroke-opacity:1"
               inkscape:transform-center-x="21.515197"
               inkscape:transform-center-y="31.056719" />
          </g>
          <g
             style="fill:#ffffff;fill-opacity:1;stroke:none"
             id="g5084"
             transform="matrix(-0.34579605,0,0,-0.41012164,49.907793,179.8455)">
            <path
               sodipodi:nodetypes="ccccc"
               inkscape:connector-curvature="0"
               id="path5078"
               d="m 100.92316,198.40275 15.39977,-14.84173 0.13528,1.0969 -13.51094,13.76145 z"
               style="fill:#ffffff;fill-opacity:1;stroke:none;stroke-width:0.26458332px;stroke-linecap:butt;stroke-linejoin:miter;stroke-opacity:1" />
            <path
               sodipodi:nodetypes="ccccc"
               style="fill:#ffffff;fill-opacity:1;stroke:none;stroke-width:0.26458332px;stroke-linecap:butt;stroke-linejoin:miter;stroke-opacity:1"
               d="m 105.1027,198.43707 11.47722,-12.69973 0.15026,1.49542 -10.64038,11.21241 z"
               id="path5080"
               inkscape:connector-curvature="0" />
            <path
               sodipodi:nodetypes="ccccc"
               inkscape:connector-curvature="0"
               id="path5082"
               d="m 93.721135,198.34362 21.547795,-21.27829 0.61495,3.44926 -17.252337,17.86935 z"
               style="fill:#ffffff;fill-opacity:1;stroke:none;stroke-width:0.26458332px;stroke-linecap:butt;stroke-linejoin:miter;stroke-opacity:1" />
          </g>
          <path
             sodipodi:nodetypes="ccccc"
             inkscape:connector-curvature="0"
             id="path5096"
             d="m 41.82612,95.618037 c -0.395866,3.604015 -1.621376,6.461363 -6.428869,6.094903 5.278906,0.64581 5.786131,3.51949 6.428869,6.84633 0.330863,-6.07731 3.667055,-5.88287 6.178393,-6.76283 -3.395331,0.16698 -5.4548,-1.892484 -6.178393,-6.178403 z"
             style="fill:#ffffff;fill-opacity:1;stroke:none;stroke-width:0.33396718px;stroke-linecap:butt;stroke-linejoin:miter;stroke-opacity:1" />
          <path
             style="fill:#ffffff;fill-opacity:1;stroke:none;stroke-width:0.26458332px;stroke-linecap:butt;stroke-linejoin:miter;stroke-opacity:1"
             d="m 49.239899,121.42958 c -0.453938,2.90203 -1.752246,4.41739 -5.186773,4.78187 4.275723,0.9326 4.303391,2.36736 5.093229,5.42397 0.589529,-4.90825 2.343935,-4.66067 4.894792,-5.35782 -3.110879,0.0855 -4.555391,-1.40576 -4.801248,-4.84802 z"
             id="path5111"
             inkscape:connector-curvature="0"
             sodipodi:nodetypes="ccccc" />
          <path
             sodipodi:nodetypes="ccccc"
             inkscape:connector-curvature="0"
             id="path5113"
             d="m 65.748037,98.80771 c -0.231479,1.47985 -0.89353,2.25257 -2.644911,2.43844 2.180336,0.47556 2.194444,1.20719 2.59721,2.76586 0.30062,-2.50288 1.195251,-2.37663 2.496019,-2.73213 -1.586342,0.0436 -2.322947,-0.71684 -2.448318,-2.47217 z"
             style="fill:#ffffff;fill-opacity:1;stroke:none;stroke-width:0.13491997px;stroke-linecap:butt;stroke-linejoin:miter;stroke-opacity:1" />
          <path
             sodipodi:nodetypes="ccccc"
             inkscape:connector-curvature="0"
             id="path5115"
             d="m 33.988684,108.20042 c -0.149614,0.95648 -0.577526,1.45593 -1.709517,1.57606 1.409243,0.30738 1.418362,0.78027 1.678685,1.7877 0.194305,-1.61772 0.772542,-1.53612 1.613283,-1.76589 -1.025319,0.0282 -1.501419,-0.46333 -1.582451,-1.59787 z"
             style="fill:#ffffff;fill-opacity:1;stroke:none;stroke-width:0.08720445px;stroke-linecap:butt;stroke-linejoin:miter;stroke-opacity:1" />
        </g>
      </g>
    </g>
  </g>
</svg>
