<?xml version="1.0" encoding="UTF-8" standalone="no"?>
<svg
   xmlns:dc="http://purl.org/dc/elements/1.1/"
   xmlns:cc="http://creativecommons.org/ns#"
   xmlns:rdf="http://www.w3.org/1999/02/22-rdf-syntax-ns#"
   xmlns:svg="http://www.w3.org/2000/svg"
   xmlns="http://www.w3.org/2000/svg"
   id="SVGRoot"
   version="1.1"
   viewBox="0 0 200 200"
   height="200px"
   width="200px">
  <defs
     id="defs4543" />
  <metadata
     id="metadata4546">
    <rdf:RDF>
      <cc:Work
         rdf:about="">
        <dc:format>image/svg+xml</dc:format>
        <dc:type
           rdf:resource="http://purl.org/dc/dcmitype/StillImage" />
        <dc:title></dc:title>
      </cc:Work>
    </rdf:RDF>
  </metadata>
  <g
     id="layer1">
    <g
       style="stroke:#24e6c3;stroke-opacity:1"
       id="g832"
       transform="matrix(1.7974719,0,0,1.7974719,-107.60695,-181.25167)">
      <g
         id="g6223"
         transform="matrix(1.6383963,0,0,1.6383963,-13.742752,-150.31255)"
         style="display:inline">
        <g
           id="g6221"
           transform="matrix(0.79040687,0,0,0.79040687,2.4539469,207.74191)">
          <g
             transform="translate(-0.53453906,102.89877)"
             id="g6159"
             style="display:inline;fill:#f74c4c;fill-opacity:1;stroke:none" />
          <g
             id="g6219"
             transform="translate(-27.724563,-228.64903)">
            <g
               id="g6181"
               transform="matrix(0.57413545,0,0,0.57413545,66.288857,161.45958)"
               style="display:inline;fill:#f74c4c;fill-opacity:1;stroke:none">
              <g
                 id="g6179">
                <g
                   id="g6165">
                  <path
                     id="path6161"
                     d="M 103.56694,54.452903 C 80.671748,5.8741553 -10.209221,59.205827 87.005247,121.72037 c 5.170055,3.32464 10.676226,8.17149 16.828963,11.71068"
                     style="fill:#f74c4c;fill-opacity:1;stroke:none;stroke-width:0.26458332px;stroke-linecap:butt;stroke-linejoin:miter;stroke-opacity:1" />
                  <path
                     style="fill:#f74c4c;fill-opacity:1;stroke:none;stroke-width:0.26458332px;stroke-linecap:butt;stroke-linejoin:miter;stroke-opacity:1"
                     d="m 103.56694,54.452903 c 22.89519,-48.5787477 113.77616,4.752924 16.56169,67.267467 -5.17005,3.32464 -10.14168,8.17149 -16.29442,11.71068"
                     id="path6163" />
                </g>
                <g
                   id="g6171">
                  <path
                     style="fill:#f74c4c;fill-opacity:1;stroke:none;stroke-width:0.26458332px;stroke-linecap:butt;stroke-linejoin:miter;stroke-opacity:1"
                     d="M 103.56694,54.452903 C 80.671748,5.8741553 -10.209221,59.205827 87.005247,121.72037 c 5.170055,3.32464 10.676226,8.17149 16.828963,11.71068"
                     id="path6167" />
                  <path
                     id="path6169"
                     d="m 103.56694,54.452903 c 22.89519,-48.5787477 113.77616,4.752924 16.56169,67.267467 -5.17005,3.32464 -10.14168,8.17149 -16.29442,11.71068"
                     style="fill:#f74c4c;fill-opacity:1;stroke:none;stroke-width:0.26458332px;stroke-linecap:butt;stroke-linejoin:miter;stroke-opacity:1" />
                </g>
                <g
                   id="g6177">
                  <path
                     id="path6173"
                     d="M 103.56694,54.452903 C 80.671748,5.8741553 -10.209221,59.205827 87.005247,121.72037 c 5.170055,3.32464 10.676226,8.17149 16.828963,11.71068"
                     style="fill:#f74c4c;fill-opacity:1;stroke:none;stroke-width:0.26458332px;stroke-linecap:butt;stroke-linejoin:miter;stroke-opacity:1" />
                  <path
                     style="fill:#f74c4c;fill-opacity:1;stroke:none;stroke-width:0.26458332px;stroke-linecap:butt;stroke-linejoin:miter;stroke-opacity:1"
                     d="m 103.56694,54.452903 c 22.89519,-48.5787477 113.77616,4.752924 16.56169,67.267467 -5.17005,3.32464 -10.14168,8.17149 -16.29442,11.71068"
                     id="path6175" />
                </g>
              </g>
            </g>
            <g
               id="g6217">
              <g
                 id="g6199"
                 style="display:inline">
                <path
                   style="fill:#f32d2d;fill-opacity:1;stroke:none;stroke-width:0.26458332px;stroke-linecap:butt;stroke-linejoin:miter;stroke-opacity:1"
                   d="m 125.75031,192.72292 c 0.56838,1.02442 1.31333,3.5259 1.60626,4.82577 1.56192,-4.68515 7.19839,-14.90845 16.0972,-15.60444 -5.56824,-0.33605 -12.95151,1.37703 -17.70346,10.77867 z"
                   id="path6183" />
                <path
                   style="fill:#f32d2d;fill-opacity:1;stroke:none;stroke-width:0.26458332px;stroke-linecap:butt;stroke-linejoin:miter;stroke-opacity:1"
                   d="m 106.04004,182.27832 c -25.319884,18.323 13.17756,56.08849 23.56445,53.12337 l -3.70073,2.66538 C 114.10267,230.39072 101.892,221.78321 95.623769,212.60903 86.002014,198.52663 92.325873,184.98451 106.04004,182.27832 Z"
                   id="path6185" />
                <path
                   style="fill:#fc7a7a;fill-opacity:1;stroke:none;stroke-width:0.26458332px;stroke-linecap:butt;stroke-linejoin:miter;stroke-opacity:1"
                   d="m 105.58597,187.27472 c 4.27462,-0.9856 7.01956,-1.74511 12.443,3.01344 1.62832,0.32424 0.64871,-2.11606 -2.01538,-4.34082 -4.74972,-3.96646 -11.8926,-2.5e-4 -10.42762,1.32738 z"
                   id="path6187" />
                <path
                   id="path6189"
                   d="m 139.53341,188.53116 c 2.38097,-0.92916 4.79748,-2.83031 11.20277,0.32627 -0.21638,0.22476 2.05921,-0.62983 -0.10335,-2.48047 -5.94948,-5.09134 -12.5644,0.82657 -11.09942,2.1542 z"
                   style="fill:#fc7a7a;fill-opacity:1;stroke:none;stroke-width:0.26458332px;stroke-linecap:butt;stroke-linejoin:miter;stroke-opacity:1" />
                <path
                   style="opacity:1;fill:#fc7a7a;fill-opacity:1;stroke:none;stroke-width:0.81839043px;stroke-linecap:butt;stroke-linejoin:miter;stroke-opacity:1"
                   d="m 138.57666,177.78157 c 12.8221,-3.44099 24.15749,6.07407 25.09162,14.91933 4.1335,1.24007 4.5768,-14.02691 -9.07277,-19.18355 -9.93443,-3.75312 -15.55839,0.91222 -16.06733,2.97837 -0.16702,0.67798 0.0486,1.28585 0.0486,1.28585 z"
                   id="path6191" />
                <path
                   id="path6193"
                   d="m 113.07961,177.78157 c -12.82211,-3.44099 -24.157492,6.07407 -25.091622,14.91933 -4.1335,1.24007 -4.5768,-14.02691 9.07277,-19.18355 9.934432,-3.75312 15.558392,0.91222 16.067332,2.97837 0.16702,0.67798 -0.0486,1.28585 -0.0486,1.28585 z"
                   style="opacity:1;fill:#fc7a7a;fill-opacity:1;stroke:none;stroke-width:0.81839043px;stroke-linecap:butt;stroke-linejoin:miter;stroke-opacity:1" />
                <path
                   id="path6195"
                   d="m 152.04543,169.23771 c 7.11888,0.64913 10.46746,3.54799 13.82244,8.7961 1.80851,-0.25841 1.87289,-4.73531 -3.36088,-8.89967 -7.98749,-3.96987 -9.99705,-1.05427 -10.46156,0.10353 z"
                   style="opacity:0.38299997;fill:#fc7a7a;fill-opacity:1;stroke:none;stroke-width:0.69553792px;stroke-linecap:butt;stroke-linejoin:miter;stroke-opacity:1" />
                <path
                   style="opacity:0.38299997;fill:#fc7a7a;fill-opacity:1;stroke:none;stroke-width:0.69553792px;stroke-linecap:butt;stroke-linejoin:miter;stroke-opacity:1"
                   d="m 96.864637,169.23771 c -7.11888,0.64913 -10.46746,3.54799 -13.82244,8.7961 -1.80851,-0.25841 -1.87289,-4.73531 3.36088,-8.89967 7.98749,-3.96987 9.99705,-1.05427 10.46156,0.10353 z"
                   id="path6197" />
              </g>
              <path
                 id="path6201"
                 d="m 125.75031,192.72292 c 0.56838,1.02442 1.31333,3.5259 1.60626,4.82577 1.56192,-4.68515 7.19839,-14.90845 16.0972,-15.60444 -5.56824,-0.33605 -12.95151,1.37703 -17.70346,10.77867 z"
                 style="fill:#f32d2d;fill-opacity:1;stroke:none;stroke-width:0.26458332px;stroke-linecap:butt;stroke-linejoin:miter;stroke-opacity:1" />
              <path
                 id="path6203"
                 d="m 106.04004,182.27832 c -25.319884,18.323 13.17756,56.08849 23.56445,53.12337 l -3.70073,2.66538 C 114.10267,230.39072 101.892,221.78321 95.623769,212.60903 86.002014,198.52663 92.325873,184.98451 106.04004,182.27832 Z"
                 style="fill:#f32d2d;fill-opacity:1;stroke:none;stroke-width:0.26458332px;stroke-linecap:butt;stroke-linejoin:miter;stroke-opacity:1" />
              <path
                 id="path6205"
                 d="m 105.58597,187.27472 c 4.27462,-0.9856 7.01956,-1.74511 12.443,3.01344 1.62832,0.32424 0.64871,-2.11606 -2.01538,-4.34082 -4.74972,-3.96646 -11.8926,-2.5e-4 -10.42762,1.32738 z"
                 style="fill:#fc7a7a;fill-opacity:1;stroke:none;stroke-width:0.26458332px;stroke-linecap:butt;stroke-linejoin:miter;stroke-opacity:1" />
              <path
                 style="fill:#fc7a7a;fill-opacity:1;stroke:none;stroke-width:0.26458332px;stroke-linecap:butt;stroke-linejoin:miter;stroke-opacity:1"
                 d="m 139.53341,188.53116 c 2.38097,-0.92916 4.79748,-2.83031 11.20277,0.32627 -0.21638,0.22476 2.05921,-0.62983 -0.10335,-2.48047 -5.94948,-5.09134 -12.5644,0.82657 -11.09942,2.1542 z"
                 id="path6207" />
              <path
                 id="path6209"
                 d="m 138.57666,177.78157 c 12.8221,-3.44099 24.15749,6.07407 25.09162,14.91933 4.1335,1.24007 4.5768,-14.02691 -9.07277,-19.18355 -9.93443,-3.75312 -15.55839,0.91222 -16.06733,2.97837 -0.16702,0.67798 0.0486,1.28585 0.0486,1.28585 z"
                 style="opacity:1;fill:#fc7a7a;fill-opacity:1;stroke:none;stroke-width:0.81839043px;stroke-linecap:butt;stroke-linejoin:miter;stroke-opacity:1" />
              <path
                 style="opacity:1;fill:#fc7a7a;fill-opacity:1;stroke:none;stroke-width:0.81839043px;stroke-linecap:butt;stroke-linejoin:miter;stroke-opacity:1"
                 d="m 113.07961,177.78157 c -12.82211,-3.44099 -24.157492,6.07407 -25.091622,14.91933 -4.1335,1.24007 -4.5768,-14.02691 9.07277,-19.18355 9.934432,-3.75312 15.558392,0.91222 16.067332,2.97837 0.16702,0.67798 -0.0486,1.28585 -0.0486,1.28585 z"
                 id="path6211" />
              <path
                 style="opacity:0.38299997;fill:#fc7a7a;fill-opacity:1;stroke:none;stroke-width:0.69553792px;stroke-linecap:butt;stroke-linejoin:miter;stroke-opacity:1"
                 d="m 152.04543,169.23771 c 7.11888,0.64913 10.46746,3.54799 13.82244,8.7961 1.80851,-0.25841 1.87289,-4.73531 -3.36088,-8.89967 -7.98749,-3.96987 -9.99705,-1.05427 -10.46156,0.10353 z"
                 id="path6213" />
              <path
                 id="path6215"
                 d="m 96.864637,169.23771 c -7.11888,0.64913 -10.46746,3.54799 -13.82244,8.7961 -1.80851,-0.25841 -1.87289,-4.73531 3.36088,-8.89967 7.98749,-3.96987 9.99705,-1.05427 10.46156,0.10353 z"
                 style="opacity:0.38299997;fill:#fc7a7a;fill-opacity:1;stroke:none;stroke-width:0.69553792px;stroke-linecap:butt;stroke-linejoin:miter;stroke-opacity:1" />
            </g>
          </g>
        </g>
      </g>
    </g>
  </g>
</svg>
