<?xml version="1.0" encoding="UTF-8" standalone="no"?>
<!-- Created with Inkscape (http://www.inkscape.org/) -->

<svg
   xmlns:dc="http://purl.org/dc/elements/1.1/"
   xmlns:cc="http://creativecommons.org/ns#"
   xmlns:rdf="http://www.w3.org/1999/02/22-rdf-syntax-ns#"
   xmlns:svg="http://www.w3.org/2000/svg"
   xmlns="http://www.w3.org/2000/svg"
   xmlns:sodipodi="http://sodipodi.sourceforge.net/DTD/sodipodi-0.dtd"
   xmlns:inkscape="http://www.inkscape.org/namespaces/inkscape"
   width="100px"
   height="100px"
   viewBox="0 0 100 100"
   version="1.1"
   id="SVGRoot"
   inkscape:version="0.92.3 (2405546, 2018-03-11)"
   sodipodi:docname="wyfae log svg.svg">
  <sodipodi:namedview
     id="base"
     pagecolor="#ffffff"
     bordercolor="#666666"
     borderopacity="1.0"
     inkscape:pageopacity="0.0"
     inkscape:pageshadow="2"
     inkscape:zoom="5.12"
     inkscape:cx="63.662898"
     inkscape:cy="45.356015"
     inkscape:document-units="px"
     inkscape:current-layer="layer1"
     showgrid="false"
     inkscape:window-width="1920"
     inkscape:window-height="1001"
     inkscape:window-x="-9"
     inkscape:window-y="-9"
     inkscape:window-maximized="1"
     inkscape:grid-bbox="true" />
  <defs
     id="defs918" />
  <metadata
     id="metadata921">
    <rdf:RDF>
      <cc:Work
         rdf:about="">
        <dc:format>image/svg+xml</dc:format>
        <dc:type
           rdf:resource="http://purl.org/dc/dcmitype/StillImage" />
        <dc:title></dc:title>
      </cc:Work>
    </rdf:RDF>
  </metadata>
  <g
     id="layer1"
     inkscape:groupmode="layer"
     inkscape:label="Layer 1">
    <g
       transform="matrix(0.34656353,0,0,0.34656353,268.08105,102.94724)"
       id="g862"
       inkscape:export-filename="C:\Users\Vishal\Pictures\wyfaelogo png.png"
       inkscape:export-xdpi="100"
       inkscape:export-ydpi="100">
      <path
         sodipodi:nodetypes="ccccc"
         inkscape:connector-curvature="0"
         id="path3879"
         d="m -764.56558,-220.72407 61.60128,102.48464 12.15452,-25.13774 c -10.69636,-36.71301 7.16535,-69.64949 45.02694,-77.07066 z"
         style="fill:#f0475f;fill-opacity:1;stroke:none;stroke-width:1.09385026px;stroke-linecap:butt;stroke-linejoin:miter;stroke-opacity:1" />
      <path
         inkscape:connector-curvature="0"
         id="path3885"
         d="m -689.34611,-91.315539 74.5845,-130.661011 46.68438,0.55248 -42.81704,74.86075 16.85058,27.62389 59.45979,-102.30118 h 45.31666 l -98.83719,171.109443 -38.67543,-68.756303 -39.97485,69.238494 z"
         style="fill:#4881ec;fill-opacity:1;stroke:none;stroke-width:1.09385026px;stroke-linecap:butt;stroke-linejoin:miter;stroke-opacity:1" />
      <g
         transform="matrix(1.0938503,0,0,1.0938503,-509.04458,327.173)"
         style="stroke:none;stroke-opacity:1"
         id="g3893">
        <path
           style="fill:none;stroke:none;stroke-width:1px;stroke-linecap:butt;stroke-linejoin:miter;stroke-opacity:1"
           d="m -213.95976,-493.53112 c 6.3465,-5.66156 3.86126,-12.2458 7.53208,-18.71942 4.10274,-7.23532 9.14355,-6.32107 12.22585,-16.35405"
           id="path3881"
           inkscape:connector-curvature="0"
           sodipodi:nodetypes="csc" />
        <path
           style="fill:none;stroke:none;stroke-width:1px;stroke-linecap:butt;stroke-linejoin:miter;stroke-opacity:1"
           d="m -223.46468,-509.8852 -11.39579,-19.03506 40.65864,0.31567"
           id="path3889"
           inkscape:connector-curvature="0" />
      </g>
      <path
         sodipodi:nodetypes="cccc"
         inkscape:connector-curvature="0"
         id="path3904"
         d="m -764.56558,-220.72407 12.46529,20.82151 c 8.28796,-3.57556 11.6207,-9.38798 11.94488,-20.8013 z"
         style="fill:#000d5d;fill-opacity:1;stroke:none;stroke-width:1.09385026px;stroke-linecap:butt;stroke-linejoin:miter;stroke-opacity:1" />
      <path
         sodipodi:nodetypes="cccscc"
         inkscape:connector-curvature="0"
         id="path3906"
         d="m -751.96462,-199.57159 c 6.62126,-4.46663 11.65879,-10.45365 11.80921,-21.13227 l 20.23451,-0.13812 c -1.0288,13.15491 -7.04185,9.46496 -13.04885,17.63765 -4.2215,5.74347 -1.57206,14.2451 -8.56685,21.38109 z"
         style="fill:#eea83c;fill-opacity:1;stroke:none;stroke-width:1.09385026px;stroke-linecap:butt;stroke-linejoin:miter;stroke-opacity:1" />
      <path
         sodipodi:nodetypes="ccccc"
         inkscape:connector-curvature="0"
         id="path3920"
         d="m -745.51617,-205.21723 9.90144,8.92597 c -0.1989,4.95945 -2.57403,11.92447 -5.92187,14.46802 l -10.56842,-18.07798 c 2.45043,-1.60616 4.68899,-3.01032 6.58885,-5.31601 z"
         style="fill:#fbcc6b;fill-opacity:1;stroke:none;stroke-width:1.09385026px;stroke-linecap:butt;stroke-linejoin:miter;stroke-opacity:1" />
      <path
         sodipodi:nodetypes="ccccc"
         inkscape:connector-curvature="0"
         id="path3922"
         d="m -741.0014,-213.59072 16.24631,3.59111 c 3.92088,-2.75683 4.58887,-6.94449 4.83419,-10.84237 l -20.23451,0.13812 c 0.16026,2.95101 -0.32131,4.9816 -0.84599,7.11314 z"
         style="fill:#f2894f;fill-opacity:1;stroke:none;stroke-width:1.09385026px;stroke-linecap:butt;stroke-linejoin:miter;stroke-opacity:1" />
    </g>
  </g>
</svg>
