<?xml version="1.0" encoding="UTF-8" standalone="no"?>
<svg
   xmlns:dc="http://purl.org/dc/elements/1.1/"
   xmlns:cc="http://creativecommons.org/ns#"
   xmlns:rdf="http://www.w3.org/1999/02/22-rdf-syntax-ns#"
   xmlns:svg="http://www.w3.org/2000/svg"
   xmlns="http://www.w3.org/2000/svg"
   id="SVGRoot"
   version="1.1"
   viewBox="0 0 200 200"
   height="200px"
   width="200px">
  <defs
     id="defs4543" />
  <metadata
     id="metadata4546">
    <rdf:RDF>
      <cc:Work
         rdf:about="">
        <dc:format>image/svg+xml</dc:format>
        <dc:type
           rdf:resource="http://purl.org/dc/dcmitype/StillImage" />
        <dc:title></dc:title>
      </cc:Work>
    </rdf:RDF>
  </metadata>
  <g
     id="layer1">
    <g
       style="stroke:#24e6c3;stroke-opacity:1"
       id="g832"
       transform="matrix(1.7974719,0,0,1.7974719,-107.60695,-181.25167)">
      <g
         transform="matrix(4.4082857,0,0,4.4082857,48.13227,-565.22449)"
         id="g4788"
         style="display:inline">
        <g
           id="g4786"
           transform="matrix(0.91327472,0,0,0.91327472,2.3362511,217.32046)">
          <g
             transform="translate(-0.53453906,102.89877)"
             id="g4724"
             style="display:inline;fill:#f74c4c;fill-opacity:1;stroke:none" />
          <g
             id="g4784"
             transform="translate(-27.724563,-228.64903)">
            <g
               transform="matrix(0.3923279,0,0,0.3923279,-7.813628,87.760372)"
               id="g4822">
              <g
                 style="display:inline;fill:#d2d2d2;fill-opacity:1;stroke:none"
                 transform="matrix(0.57413545,0,0,0.57413545,66.288857,161.45958)"
                 id="g4746">
                <g
                   id="g4744"
                   style="fill:#d2d2d2;fill-opacity:1">
                  <g
                     id="g4730"
                     style="fill:#d2d2d2;fill-opacity:1">
                    <path
                       style="fill:#d2d2d2;fill-opacity:1;stroke:none;stroke-width:0.26458332px;stroke-linecap:butt;stroke-linejoin:miter;stroke-opacity:1"
                       d="M 103.56694,54.452903 C 80.671748,5.8741553 -10.209221,59.205827 87.005247,121.72037 c 5.170055,3.32464 10.676226,8.17149 16.828963,11.71068"
                       id="path4726" />
                    <path
                       id="path4728"
                       d="m 103.56694,54.452903 c 22.89519,-48.5787477 113.77616,4.752924 16.56169,67.267467 -5.17005,3.32464 -10.14168,8.17149 -16.29442,11.71068"
                       style="fill:#d2d2d2;fill-opacity:1;stroke:none;stroke-width:0.26458332px;stroke-linecap:butt;stroke-linejoin:miter;stroke-opacity:1" />
                  </g>
                  <g
                     id="g4736"
                     style="fill:#d2d2d2;fill-opacity:1">
                    <path
                       id="path4732"
                       d="M 103.56694,54.452903 C 80.671748,5.8741553 -10.209221,59.205827 87.005247,121.72037 c 5.170055,3.32464 10.676226,8.17149 16.828963,11.71068"
                       style="fill:#d2d2d2;fill-opacity:1;stroke:none;stroke-width:0.26458332px;stroke-linecap:butt;stroke-linejoin:miter;stroke-opacity:1" />
                    <path
                       style="fill:#d2d2d2;fill-opacity:1;stroke:none;stroke-width:0.26458332px;stroke-linecap:butt;stroke-linejoin:miter;stroke-opacity:1"
                       d="m 103.56694,54.452903 c 22.89519,-48.5787477 113.77616,4.752924 16.56169,67.267467 -5.17005,3.32464 -10.14168,8.17149 -16.29442,11.71068"
                       id="path4734" />
                  </g>
                  <g
                     id="g4742"
                     style="fill:#d2d2d2;fill-opacity:1">
                    <path
                       style="fill:#d2d2d2;fill-opacity:1;stroke:none;stroke-width:0.26458332px;stroke-linecap:butt;stroke-linejoin:miter;stroke-opacity:1"
                       d="M 103.56694,54.452903 C 80.671748,5.8741553 -10.209221,59.205827 87.005247,121.72037 c 5.170055,3.32464 10.676226,8.17149 16.828963,11.71068"
                       id="path4738" />
                    <path
                       id="path4740"
                       d="m 103.56694,54.452903 c 22.89519,-48.5787477 113.77616,4.752924 16.56169,67.267467 -5.17005,3.32464 -10.14168,8.17149 -16.29442,11.71068"
                       style="fill:#d2d2d2;fill-opacity:1;stroke:none;stroke-width:0.26458332px;stroke-linecap:butt;stroke-linejoin:miter;stroke-opacity:1" />
                  </g>
                </g>
              </g>
              <g
                 id="g4782"
                 style="fill:#c5c5c5;fill-opacity:1">
                <path
                   style="fill:#c5c5c5;fill-opacity:1;stroke:none;stroke-width:0.26458332px;stroke-linecap:butt;stroke-linejoin:miter;stroke-opacity:1"
                   d="m 125.75031,192.72292 c 0.56838,1.02442 1.31333,3.5259 1.60626,4.82577 1.56192,-4.68515 7.19839,-14.90845 16.0972,-15.60444 -5.56824,-0.33605 -12.95151,1.37703 -17.70346,10.77867 z"
                   id="path4766" />
              </g>
            </g>
          </g>
        </g>
      </g>
    </g>
  </g>
</svg>
